<?xml version="1.0" encoding="UTF-8"?>
<svg width="30px" height="21px" viewBox="0 0 30 21" version="1.1" xmlns="http://www.w3.org/2000/svg" xmlns:xlink="http://www.w3.org/1999/xlink">
    <title>Shape</title>
    <g id="Symbols" stroke="none" stroke-width="1" fill="none" fill-rule="evenodd">
        <g id="Desktop/Footer" transform="translate(-669.000000, -360.000000)" fill="#787878" fill-rule="nonzero">
            <path d="M697.725,362.034017 C696.91125,360.611412 696.028125,360.349741 694.23,360.250233 C692.43375,360.130454 687.916875,360.0807 684.00375,360.0807 C680.083125,360.0807 675.564375,360.130454 673.77,360.24839 C671.975625,360.349741 671.090625,360.609569 670.269375,362.034017 C669.43125,363.454778 669,365.901953 669,370.210307 C669,370.213992 669,370.215835 669,370.215835 C669,370.21952 669,370.221363 669,370.221363 L669,370.225049 C669,374.514975 669.43125,376.980577 670.269375,378.386596 C671.090625,379.809201 671.97375,380.067186 673.768125,380.186965 C675.564375,380.290159 680.083125,380.35097 684.00375,380.35097 C687.916875,380.35097 692.43375,380.290159 694.231875,380.188808 C696.03,380.069029 696.913125,379.811044 697.726875,378.388439 C698.5725,376.98242 699,374.516818 699,370.226891 C699,370.226891 699,370.221363 699,370.217678 C699,370.217678 699,370.213992 699,370.212149 C699,365.901953 698.5725,363.454778 697.725,362.034017 Z M680.25,375.74409 L680.25,364.687579 L689.625,370.215835 L680.25,375.74409 Z" id="Shape"></path>
        </g>
    </g>
</svg>