<?xml version="1.0" encoding="UTF-8"?>
<svg width="10px" height="10px" viewBox="0 0 10 10" version="1.1" xmlns="http://www.w3.org/2000/svg" xmlns:xlink="http://www.w3.org/1999/xlink">
    <title>Path 2</title>
    <g id="Symbols" stroke="none" stroke-width="1" fill="none" fill-rule="evenodd">
        <g id="Top-Header-Mobile" transform="translate(-16.000000, -14.000000)" fill="#CC726B">
            <path d="M16.0022255,19.7115846 C15.9561938,20.036353 16.6314576,20.4827323 17.35718,21.6620883 C18.0829024,22.8414442 18.3903732,23.8788988 18.6306521,23.9766177 C18.8709311,24.0743366 19.4376519,23.8425176 19.7298316,23.7097486 C20.0220113,23.5769795 20.4515567,23.3804325 20.6169666,22.9422318 C20.7823765,22.5040311 21.4775802,20.3601308 22.5335196,18.5018817 C23.589459,16.6436327 25.7129488,14.6478081 25.908116,14.512488 C26.1032832,14.3771678 25.938825,14.1930067 25.8603711,14.1435002 C25.7819172,14.0939937 25.5069955,13.9549023 25.2752503,14.0146502 C25.0435052,14.0743982 22.3944091,15.7481903 21.405947,17.0210133 C20.7469723,17.8695619 20.0204357,18.9938161 19.2263371,20.393776 C19.1434694,20.1500075 19.0049067,19.8620839 18.810649,19.5300051 C18.5192623,19.0318868 18.2937889,18.5590665 18.1334549,18.5590665 C17.9731209,18.5590665 17.0783344,18.8954445 16.6728042,19.0335746 C16.2672739,19.1717047 16.0482573,19.3868162 16.0022255,19.7115846 Z" id="Path-2"></path>
        </g>
    </g>
</svg>