<?xml version="1.0" encoding="UTF-8"?>
<svg width="25px" height="30px" viewBox="0 0 25 30" version="1.1" xmlns="http://www.w3.org/2000/svg" xmlns:xlink="http://www.w3.org/1999/xlink">
    <title>Path</title>
    <g id="Symbols" stroke="none" stroke-width="1" fill="none" fill-rule="evenodd">
        <g id="Desktop/Footer" transform="translate(-731.000000, -353.000000)" fill="#787878" fill-rule="nonzero">
            <path d="M743.814955,353.12 C735.449081,353.12 731,358.346837 731,364.046135 C731,366.689315 732.514824,369.985384 734.939688,371.030751 C735.307901,371.192579 735.508224,371.123755 735.590261,370.7908 C735.662759,370.537829 735.981368,369.319474 736.135903,368.744708 C736.183599,368.560559 736.158797,368.400592 736.00617,368.227604 C735.201062,367.319883 734.561936,365.666268 734.561936,364.114958 C734.561936,360.139958 737.803354,356.280283 743.318917,356.280283 C748.088515,356.280283 751.425325,359.30106 751.425325,363.622036 C751.425325,368.504757 748.775337,371.88267 745.331687,371.88267 C743.425756,371.88267 742.006324,370.424364 742.456574,368.620082 C743.000308,366.471685 744.06679,364.16146 744.06679,362.61201 C744.06679,361.222527 743.261682,360.072995 741.617124,360.072995 C739.676852,360.072995 738.102885,361.9461 738.102885,364.460934 C738.102885,366.058746 738.682868,367.137595 738.682868,367.137595 C738.682868,367.137595 736.763582,374.696977 736.406816,376.108781 C735.803939,378.498989 736.488853,382.369825 736.547996,382.70278 C736.584245,382.886928 736.796015,382.944591 736.914301,382.793924 C737.103177,382.552113 739.423109,379.324867 740.073683,376.992321 C740.310255,376.142263 741.281345,372.695527 741.281345,372.695527 C741.920471,373.820878 743.765351,374.76394 745.730425,374.76394 C751.576044,374.76394 755.8,369.754733 755.8,363.538332 C755.779014,357.578622 750.547719,353.12 743.814955,353.12 Z" id="Path"></path>
        </g>
    </g>
</svg>