<?xml version="1.0" encoding="UTF-8"?>
<svg width="30px" height="31px" viewBox="0 0 30 31" version="1.1" xmlns="http://www.w3.org/2000/svg" xmlns:xlink="http://www.w3.org/1999/xlink">
    <title>Group</title>
    <g id="Symbols" stroke="none" stroke-width="1" fill="none" fill-rule="evenodd">
        <g id="Desktop/Footer" transform="translate(-788.000000, -353.000000)" fill="#787878" fill-rule="nonzero">
            <g id="Group" transform="translate(788.000000, 353.120000)">
                <path d="M4.359375,29.76 L25.400625,29.76 C27.8044116,29.76 29.76,27.8044116 29.76,25.400625 L29.76,4.359375 C29.76,1.95558836 27.8044116,1.08357767e-13 25.400625,1.08357767e-13 L4.359375,1.08357767e-13 C1.95558836,1.08357767e-13 1.08357767e-13,1.95558836 1.08357767e-13,4.359375 L1.08357767e-13,25.400625 C1.08357767e-13,27.8044116 1.95558836,29.76 4.359375,29.76 Z M1.74375,4.359375 C1.74375,2.91714844 2.91714844,1.74375 4.359375,1.74375 L25.400625,1.74375 C26.8428516,1.74375 28.01625,2.91714844 28.01625,4.359375 L28.01625,25.400625 C28.01625,26.8428516 26.8428516,28.01625 25.400625,28.01625 L4.359375,28.01625 C2.91714844,28.01625 1.74375,26.8428516 1.74375,25.400625 L1.74375,4.359375 Z" id="Shape"></path>
                <path d="M15.2933333,23.1466667 C19.6235741,23.1466667 23.1466667,19.6235741 23.1466667,15.2933333 C23.1466667,10.9630926 19.6235741,7.44 15.2933333,7.44 C10.9630926,7.44 7.44,10.9630926 7.44,15.2933333 C7.44,19.6235741 10.9630926,23.1466667 15.2933333,23.1466667 Z M15.2933333,9.18518519 C18.6614499,9.18518519 21.4014815,11.9252168 21.4014815,15.2933333 C21.4014815,18.6614499 18.6614499,21.4014815 15.2933333,21.4014815 C11.9252168,21.4014815 9.18518519,18.6614499 9.18518519,15.2933333 C9.18518519,11.9252168 11.9252168,9.18518519 15.2933333,9.18518519 Z" id="Shape"></path>
                <path d="M23.9733333,8.26666667 C25.3407778,8.26666667 26.4533333,7.15411111 26.4533333,5.78666667 C26.4533333,4.41922222 25.3407778,3.30666667 23.9733333,3.30666667 C22.6058889,3.30666667 21.4933333,4.41922222 21.4933333,5.78666667 C21.4933333,7.15411111 22.6058889,8.26666667 23.9733333,8.26666667 Z M23.9733333,4.96 C24.4290764,4.96 24.8,5.33092362 24.8,5.78666667 C24.8,6.24240971 24.4290764,6.61333333 23.9733333,6.61333333 C23.5175903,6.61333333 23.1466667,6.24240971 23.1466667,5.78666667 C23.1466667,5.33092362 23.5175903,4.96 23.9733333,4.96 Z" id="Shape"></path>
            </g>
        </g>
    </g>
</svg>