<?xml version="1.0" encoding="UTF-8"?>
<svg width="14px" height="14px" viewBox="0 0 14 14" version="1.1" xmlns="http://www.w3.org/2000/svg" xmlns:xlink="http://www.w3.org/1999/xlink">
    <title>Path 2</title>
    <g id="Symbols" stroke="none" stroke-width="1" fill="none" fill-rule="evenodd">
        <g id="Desktop/Header/IconMiddle-Copy" transform="translate(-448.000000, -12.000000)" fill="#CC726B">
            <path d="M448.003116,19.9962185 C447.938671,20.4508943 448.884041,21.0758253 449.900052,22.7269236 C450.916063,24.3780218 451.346522,25.8304583 451.682913,25.9672648 C452.019303,26.1040712 452.812713,25.7795247 453.221764,25.593648 C453.630816,25.4077713 454.232179,25.1326055 454.463753,24.5191245 C454.695327,23.9056436 455.668612,20.9041831 457.146927,18.3026344 C458.625243,15.7010858 461.598128,12.9069314 461.871362,12.7174831 C462.144596,12.5280349 461.914355,12.2702093 461.80452,12.2009003 C461.694684,12.1315912 461.309794,11.9368633 460.98535,12.0205103 C460.660907,12.1041574 456.952173,14.4474664 455.568326,16.2294186 C454.645761,17.4173867 453.62861,18.9913426 452.516872,20.9512864 C452.400857,20.6100105 452.206869,20.2069175 451.934909,19.7420071 C451.526967,19.0446415 451.211304,18.3826931 450.986837,18.3826931 C450.762369,18.3826931 449.509668,18.8536223 448.941926,19.0470045 C448.374184,19.2403866 448.06756,19.5415427 448.003116,19.9962185 Z" id="Path-2"></path>
        </g>
    </g>
</svg>