<?xml version="1.0" encoding="UTF-8"?>
<svg width="8px" height="8px" viewBox="0 0 8 8" version="1.1" xmlns="http://www.w3.org/2000/svg" xmlns:xlink="http://www.w3.org/1999/xlink">
    <title>Path 2</title>
    <g id="SRB-Desktop" stroke="none" stroke-width="1" fill="none" fill-rule="evenodd">
        <g id="Collection-page/Hover" transform="translate(-72.000000, -1138.000000)" fill="#FFFFFF">
            <path d="M72.0017804,1142.56927 C71.964955,1142.82908 72.5051661,1143.18619 73.085744,1144.12967 C73.6663219,1145.07316 73.9122985,1145.90312 74.1045217,1145.98129 C74.2967449,1146.05947 74.7501215,1145.87401 74.9838653,1145.7678 C75.217609,1145.66158 75.5612454,1145.50435 75.6935733,1145.15379 C75.8259012,1144.80322 76.3820642,1143.0881 77.2268157,1141.60151 C78.0715672,1140.11491 79.7703591,1138.51825 79.9264928,1138.40999 C80.0826265,1138.30173 79.95106,1138.15441 79.8882969,1138.1148 C79.8255338,1138.07519 79.6055964,1137.96392 79.4202002,1138.01172 C79.2348041,1138.05952 77.1155273,1139.39855 76.3247576,1140.41681 C75.7975778,1141.09565 75.2163485,1141.99505 74.5810697,1143.11502 C74.5147755,1142.92001 74.4039254,1142.68967 74.2485192,1142.424 C74.0154099,1142.02551 73.8350311,1141.64725 73.7067639,1141.64725 C73.5784967,1141.64725 72.8626675,1141.91636 72.5382433,1142.02686 C72.2138192,1142.13736 72.0386059,1142.30945 72.0017804,1142.56927 Z" id="Path-2"></path>
        </g>
    </g>
</svg>